<?xml version="1.0" encoding="UTF-8"?>
<svg width="26px" height="17px" viewBox="0 0 26 17" version="1.1" xmlns="http://www.w3.org/2000/svg" xmlns:xlink="http://www.w3.org/1999/xlink">
    <!-- Generator: Sketch 41.1 (35376) - http://www.bohemiancoding.com/sketch -->
    <title>behance (1)</title>
    <desc>Created with Sketch.</desc>
    <defs></defs>
    <g id="Page-1" stroke="none" stroke-width="1" fill="none" fill-rule="evenodd">
        <g id="Home" transform="translate(-1214.000000, -40.000000)" fill="#9B9B9B">
            <g id="behance-(1)" transform="translate(1214.500000, 40.500000)">
                <path d="M9.77265193,7.45158621 C10.7491713,6.69034483 11.3783149,5.50496552 11.3783149,4.17531034 C11.3783149,1.88372414 9.51201657,0.0195862069 7.21740331,0.0195862069 L0.828729282,0.0195862069 C0.371270718,0.0195862069 0,0.390206897 0,0.847172414 L0,15.0346207 C0,15.4914483 0.371270718,15.8622069 0.828729282,15.8622069 L7.21740331,15.8622069 C9.75372928,15.8622069 11.816989,13.8017931 11.816989,11.2689655 C11.816989,9.67958621 11.0044199,8.27655172 9.77265193,7.45158621 Z M7.21740331,1.67475862 C8.5980663,1.67475862 9.72085635,2.79641379 9.72085635,4.17531034 C9.72085635,5.55406897 8.5980663,6.67531034 7.21740331,6.67531034 L1.65745856,6.67531034 L1.65745856,1.67475862 L7.21740331,1.67475862 Z M7.21740331,14.2070345 L1.65745856,14.2070345 L1.65745856,8.33048276 L7.21740331,8.33048276 C8.83977901,8.33048276 10.1595304,9.64882759 10.1595304,11.2689655 C10.1595304,12.8891034 8.83977901,14.2070345 7.21740331,14.2070345 Z" id="Fill-1"></path>
                <path d="M18.9145028,3.74151724 C15.5683702,3.74151724 12.8458564,6.46027586 12.8458564,9.8017931 C12.8458564,13.1434483 15.5683702,15.8622069 18.9145028,15.8622069 C20.5353591,15.8622069 22.0595304,15.2318621 23.2055249,14.0868966 C23.5292818,13.7635862 23.5292818,13.2398621 23.2055249,12.9166897 C22.8823204,12.5933793 22.3573204,12.5933793 22.0335635,12.9166897 C21.2005525,13.7485517 20.0924033,14.2070345 18.9145028,14.2070345 C16.7656077,14.2070345 14.9716851,12.6638621 14.5825967,10.6293793 L24.154558,10.6293793 C24.6120166,10.6293793 24.9832873,10.2587586 24.9832873,9.8017931 C24.9832873,6.46027586 22.2607735,3.74151724 18.9145028,3.74151724 Z M18.9145028,5.39668966 C21.0635359,5.39668966 22.8574586,6.93972414 23.246547,8.9742069 L14.5825967,8.9742069 C14.9716851,6.93972414 16.7656077,5.39668966 18.9145028,5.39668966 Z" id="Fill-2"></path>
                <path d="M15.185221,2.11268966 L22.2013812,2.11268966 C22.6589779,2.11268966 23.0301105,1.74206897 23.0301105,1.28510345 C23.0301105,0.827724138 22.6589779,0.457517241 22.2013812,0.457517241 L15.185221,0.457517241 C14.7277624,0.457517241 14.3564917,0.827724138 14.3564917,1.28510345 C14.3564917,1.74206897 14.7277624,2.11268966 15.185221,2.11268966 Z" id="Fill-3"></path>
            </g>
        </g>
    </g>
</svg>