<?xml version="1.0" encoding="UTF-8"?>
<svg width="7px" height="12px" viewBox="0 0 7 12" version="1.1" xmlns="http://www.w3.org/2000/svg" xmlns:xlink="http://www.w3.org/1999/xlink">
    <!-- Generator: Sketch 41.1 (35376) - http://www.bohemiancoding.com/sketch -->
    <title>facebook-logo</title>
    <desc>Created with Sketch.</desc>
    <defs>
        <polygon id="path-1" points="0.00505943972 0.0118333333 0.00505943972 10.6668333 6.29461761 10.6668333 6.29461761 0.0118333333 0.00505943972 0.0118333333"></polygon>
    </defs>
    <g id="Page-1" stroke="none" stroke-width="1" fill="none" fill-rule="evenodd">
        <g id="Home" transform="translate(-1000.000000, -657.000000)">
            <g id="Group-2" transform="translate(1000.000000, 656.000000)">
                <g id="facebook-logo" transform="translate(0.000000, 1.875000)">
                    <mask id="mask-2" fill="white">
                        <use xlink:href="#path-1"></use>
                    </mask>
                    <g id="Clip-2"></g>
                    <path d="M2.93160802,2.42333333 C3.21122639,2.42333333 3.437552,2.19933333 3.437552,1.92333333 C3.437552,1.42075 3.85158281,1.01183333 4.35980353,1.01183333 L5.78867364,1.01183333 C6.06803903,1.01183333 6.29461761,0.787916667 6.29461761,0.511833333 C6.29461761,0.235833333 6.06803903,0.0118333333 5.78867364,0.0118333333 L4.35980353,0.0118333333 C3.29361094,0.0118333333 2.42566405,0.86925 2.42566405,1.92333333 C2.42566405,2.19933333 2.65224263,2.42333333 2.93160802,2.42333333 Z" id="Fill-1" fill="#9B9B9B" mask="url(#mask-2)"></path>
                    <path d="M5.6803173,3.98716667 L0.505943972,3.98716667 C0.2266629,3.98716667 0,4.21075 0,4.48716667 C0,4.76316667 0.2266629,4.98716667 0.505943972,4.98716667 L2.42600135,4.98716667 L2.42600135,10.1668333 C2.42600135,10.4428333 2.65224263,10.6668333 2.93194532,10.6668333 C3.21122639,10.6668333 3.43788929,10.4428333 3.43788929,10.1668333 L3.43788929,4.98716667 L5.6803173,4.98716667 C5.9596827,4.98716667 6.18626127,4.76316667 6.18626127,4.48716667 C6.18626127,4.21075 5.9596827,3.98716667 5.6803173,3.98716667 Z" id="Fill-3" fill="#9B9B9B" mask="url(#mask-2)"></path>
                </g>
            </g>
        </g>
    </g>
</svg>