<?xml version="1.0" encoding="UTF-8"?>
<svg width="12px" height="12px" viewBox="0 0 12 12" version="1.1" xmlns="http://www.w3.org/2000/svg" xmlns:xlink="http://www.w3.org/1999/xlink">
    <!-- Generator: Sketch 41.1 (35376) - http://www.bohemiancoding.com/sketch -->
    <title>instagram-logo</title>
    <desc>Created with Sketch.</desc>
    <defs>
        <polygon id="path-1" points="0.00505943972 0.0625 0.00505943972 11.3333333 11.4048204 11.3333333 11.4048204 0.0625 0.00505943972 0.0625"></polygon>
    </defs>
    <g id="Page-1" stroke="none" stroke-width="1" fill="none" fill-rule="evenodd">
        <g id="Home" transform="translate(-1091.000000, -657.000000)">
            <g id="Group-2" transform="translate(1000.000000, 656.000000)">
                <g id="instagram-logo" transform="translate(91.034562, 1.500000)">
                    <g id="Group-3">
                        <mask id="mask-2" fill="white">
                            <use xlink:href="#path-1"></use>
                        </mask>
                        <g id="Clip-2"></g>
                        <path d="M8.25751157,0.0625 L3.1473088,0.0625 C1.41175233,0.0625 0,1.45775 0,3.17291667 L0,8.223 C0,9.93816667 1.41175233,11.3333333 3.1473088,11.3333333 L8.25751157,11.3333333 C9.99306805,11.3333333 11.4048204,9.93783333 11.4048204,8.223 L11.4048204,3.17291667 C11.4048204,1.45775 9.99306805,0.0625 8.25751157,0.0625 Z M10.3929324,8.223 C10.3929324,9.38675 9.43509617,10.3333333 8.25751157,10.3333333 L3.1473088,10.3333333 C1.96972421,10.3333333 1.01188794,9.38675 1.01188794,8.223 L1.01188794,3.17291667 C1.01188794,2.00916667 1.96972421,1.0625 3.1473088,1.0625 L8.25751157,1.0625 C9.43509617,1.0625 10.3929324,2.00916667 10.3929324,3.17291667 L10.3929324,8.223 Z" id="Fill-1" fill="#9B9B9B" mask="url(#mask-2)"></path>
                    </g>
                    <path d="M5.70241019,2.794 C4.08178732,2.794 2.7635503,4.09675 2.7635503,5.69791667 C2.7635503,7.2995 4.08178732,8.60225 5.70241019,8.60225 C7.32269576,8.60225 8.64127008,7.2995 8.64127008,5.69791667 C8.64127008,4.09675 7.32269576,2.794 5.70241019,2.794 Z M5.70241019,7.60191667 C4.64009649,7.60191667 3.77543825,6.74808333 3.77543825,5.69791667 C3.77543825,4.64816667 4.6397592,3.79366667 5.70241019,3.79366667 C6.76506118,3.79366667 7.62938213,4.64816667 7.62938213,5.69791667 C7.62938213,6.74808333 6.76472388,7.60191667 5.70241019,7.60191667 Z" id="Fill-4" fill="#9B9B9B"></path>
                    <path d="M8.76446743,1.946 C8.56942603,1.946 8.37801056,2.02383333 8.2403938,2.1605 C8.10168083,2.29658333 8.02233195,2.486 8.02233195,2.67941667 C8.02233195,2.87208333 8.10201813,3.06125 8.2403938,3.19791667 C8.37775759,3.334 8.56942603,3.4125 8.76446743,3.4125 C8.9600991,3.4125 9.15083998,3.334 9.28913133,3.19791667 C9.42750701,3.06125 9.50651859,2.87175 9.50651859,2.67941667 C9.50651859,2.486 9.42750701,2.29658333 9.28913133,2.1605 C9.15143025,2.02383333 8.9600991,1.946 8.76446743,1.946 Z" id="Fill-5" fill="#9B9B9B"></path>
                </g>
            </g>
        </g>
    </g>
</svg>