<?xml version="1.0" encoding="UTF-8"?>
<svg width="24px" height="21px" viewBox="0 0 24 21" version="1.1" xmlns="http://www.w3.org/2000/svg" xmlns:xlink="http://www.w3.org/1999/xlink">
    <!-- Generator: Sketch 41.1 (35376) - http://www.bohemiancoding.com/sketch -->
    <title>medium copy</title>
    <desc>Created with Sketch.</desc>
    <defs>
        <polygon id="path-1" points="0.00450660745 0.0686799495 0.00450660745 20.2265294 15.7936311 20.2265294 15.7936311 0.0686799495 0.00450660745 0.0686799495"></polygon>
    </defs>
    <g id="Page-1" stroke="none" stroke-width="1" fill="none" fill-rule="evenodd">
        <g id="Home" transform="translate(-1267.000000, -38.000000)">
            <g id="medium-copy" transform="translate(1267.000000, 38.500000)">
                <path d="M23.0763839,20.2624509 L15.7936311,16.7309609 L15.7388007,0.72346416 C15.7372985,0.34968697 16.124341,0.103481889 16.4582055,0.265674221 L23.3627788,3.61429058 C23.5364334,3.69860635 23.6470706,3.87587401 23.6470706,4.07064117 L23.6470706,19.9004915 C23.6470706,20.1961649 23.3407715,20.3905533 23.0763839,20.2624509 Z" id="Fill-1" fill="#00FD8D"></path>
                <path d="M15.7936311,16.7309609 L7.91119915,12.9085703 L15.4996501,0.307718473 C15.6337968,0.0851490802 15.9133567,0.00143935278 16.1460478,0.114163402 L23.1471376,3.50982387 C23.4146799,3.6397444 23.5126986,3.97412878 23.3580468,4.22980328 L15.7936311,16.7309609 Z" id="Fill-3" fill="#00E470"></path>
                <g id="Group-7" transform="translate(0.000000, 0.075755)">
                    <mask id="mask-2" fill="white">
                        <use xlink:href="#path-1"></use>
                    </mask>
                    <g id="Clip-5"></g>
                    <path d="M15.7936311,16.6552055 L7.91119915,12.8328148 L0.686281204,0.966714779 C0.484986071,0.636193928 0.83529969,0.244689972 1.18178269,0.41271547 L7.91119915,3.67641002 L15.7936311,16.6552055 Z" id="Fill-4" fill="#00C967" mask="url(#mask-2)"></path>
                    <path d="M7.34051243,20.1863924 L0.225630813,16.7356578 C0.0877286249,16.6687658 0,16.5282395 0,16.3737742 L0,0.458017205 C0,0.171586002 0.29660988,-0.0166661901 0.552735403,0.107648437 L7.91119915,3.67641002 L7.91119915,19.8245088 C7.91119915,20.1204095 7.60490006,20.3144948 7.34051243,20.1863924 Z" id="Fill-6" fill="#00AD6C" mask="url(#mask-2)"></path>
                </g>
            </g>
        </g>
    </g>
</svg>