<?xml version="1.0" encoding="UTF-8"?>
<svg width="14px" height="13px" viewBox="0 0 14 13" version="1.1" xmlns="http://www.w3.org/2000/svg" xmlns:xlink="http://www.w3.org/1999/xlink">
    <!-- Generator: Sketch 41.1 (35376) - http://www.bohemiancoding.com/sketch -->
    <title>pinterest-logo</title>
    <desc>Created with Sketch.</desc>
    <defs></defs>
    <g id="Page-1" stroke="none" stroke-width="1" fill="none" fill-rule="evenodd">
        <g id="Home" transform="translate(-1186.000000, -657.000000)" fill="#9B9B9B">
            <g id="Group-2" transform="translate(1000.000000, 656.000000)">
                <path d="M192.874232,1.27183333 C189.399156,1.27183333 186.572026,4.06575 186.572026,7.5 C186.572026,9.08883333 187.177472,10.6019167 188.276973,11.7600833 C188.467966,11.9615833 188.788145,11.9716667 188.99204,11.7825833 C189.195935,11.59375 189.206139,11.2773333 189.014808,11.0758333 C188.092134,10.1035 187.583914,8.83366667 187.583914,7.5 C187.583914,4.61716667 189.957213,2.27183333 192.874232,2.27183333 C195.791337,2.27183333 198.164636,4.61716667 198.164636,7.5 C198.164636,10.3828333 195.791337,12.7281667 192.874232,12.7281667 C192.357073,12.7281667 191.850202,12.65525 191.361713,12.5114167 L191.879209,10.5126667 C192.199303,10.5898333 192.529685,10.6289167 192.866981,10.6289167 C194.992536,10.6289167 196.721515,9.05208333 196.721515,7.11391667 C196.721515,5.1755 194.992536,3.59866667 192.866981,3.59866667 C190.741426,3.59866667 189.012194,5.1755 189.012194,7.11391667 C189.012194,7.81216667 189.236158,8.48733333 189.660055,9.06575 C189.823728,9.28941667 190.139943,9.33916667 190.366268,9.17741667 C190.592594,9.01533333 190.643273,8.70283333 190.4796,8.47916667 C190.181514,8.07225 190.024081,7.60025 190.024081,7.11391667 C190.024081,5.72691667 191.299398,4.59866667 192.866981,4.59866667 C194.434564,4.59866667 195.709627,5.72691667 195.709627,7.11391667 C195.709627,8.50066667 194.434564,9.62891667 192.866981,9.62891667 C192.615021,9.62891667 192.368289,9.60058333 192.12982,9.54391667 L192.83831,6.80791667 C192.90754,6.54033333 192.744121,6.26825 192.473356,6.19958333 C192.202592,6.13116667 191.927274,6.29266667 191.858128,6.56025 L190.265838,12.7096667 C190.202595,12.9540833 190.333635,13.20675 190.571176,13.2988333 C191.30471,13.5836667 192.079732,13.7281667 192.874232,13.7281667 C196.349309,13.7281667 199.176524,10.93425 199.176524,7.5 C199.176524,4.06575 196.349309,1.27183333 192.874232,1.27183333 Z" id="pinterest-logo"></path>
            </g>
        </g>
    </g>
</svg>