<?xml version="1.0" encoding="UTF-8"?>
<svg width="15px" height="15px" viewBox="0 0 15 15" version="1.1" xmlns="http://www.w3.org/2000/svg" xmlns:xlink="http://www.w3.org/1999/xlink">
    <!-- Generator: Sketch 41.1 (35376) - http://www.bohemiancoding.com/sketch -->
    <title>skype-logo</title>
    <desc>Created with Sketch.</desc>
    <defs></defs>
    <g id="Page-1" stroke="none" stroke-width="1" fill="none" fill-rule="evenodd">
        <g id="Home" transform="translate(-1041.000000, -656.000000)" fill="#9B9B9B">
            <g id="Group-2" transform="translate(1000.000000, 656.000000)">
                <g id="skype-logo" transform="translate(41.764863, 0.375000)">
                    <path d="M8.15143199,12.8575833 C7.82863973,12.9115833 7.49927021,12.93925 7.17184013,12.93925 C3.97343099,12.93925 1.37161411,10.3676667 1.37161411,7.20716667 C1.37161411,6.84808333 1.40517506,6.48975 1.4710321,6.14275 C1.49312499,6.02841667 1.47373047,5.91025 1.41706474,5.80841667 C1.15186578,5.33441667 1.01188794,4.797 1.01188794,4.254 C1.01188794,2.47666667 2.47507791,1.03075 4.27387738,1.03075 C4.55315846,1.03075 4.77982135,0.80675 4.77982135,0.53075 C4.77982135,0.254666667 4.55315846,0.03075 4.27387738,0.03075 C1.91702171,0.03075 0,1.92525 0,4.25375 C0,4.90508333 0.153806968,5.55025 0.445989612,6.13166667 C0.388649295,6.4845 0.359726164,6.8455 0.359726164,7.20716667 C0.359726164,10.9190833 3.41545911,13.93925 7.17184013,13.93925 C7.55585161,13.93925 7.94230848,13.90675 8.32109187,13.84325 C8.59640971,13.797 8.7819225,13.5388333 8.73512268,13.2664167 C8.68798557,12.99425 8.42717145,12.811 8.15143199,12.8575833 Z" id="Fill-1"></path>
                    <path d="M13.8778745,8.396 C13.9483694,8.00308333 13.9839541,7.604 13.9839541,7.20716667 C13.9839541,3.49491667 10.9282212,0.47475 7.17184013,0.47475 C6.81835394,0.47475 6.46233803,0.50175 6.11382696,0.5555 C5.8377502,0.598083333 5.6490331,0.853666667 5.69186969,1.12641667 C5.73504357,1.39958333 5.99358094,1.58608333 6.26991068,1.54341667 C6.56673114,1.49783333 6.87012888,1.47475 7.17184013,1.47475 C10.370165,1.47475 12.9720662,4.04633333 12.9720662,7.20716667 C12.9720662,7.59125 12.9328555,7.97833333 12.8554461,8.35658333 C12.8340278,8.46141667 12.8471823,8.57008333 12.8929702,8.66716667 C13.0945889,9.09483333 13.1970426,9.55225 13.1970426,10.0268333 C13.1970426,11.8041667 11.7338526,13.2501667 9.93539043,13.2501667 C9.65610936,13.2501667 9.42944646,13.47375 9.42944646,13.7501667 C9.42944646,14.0261667 9.65610936,14.2501667 9.93539043,14.2501667 C12.2919088,14.2501667 14.2089305,12.3555833 14.2089305,10.0268333 C14.2089305,9.46075 14.0976228,8.91291667 13.8778745,8.396 Z" id="Fill-2"></path>
                    <path d="M9.75291331,8.34325 C9.75291331,8.04508333 9.69363354,7.7895 9.57667616,7.58441667 C9.4601404,7.379 9.29503401,7.20683333 9.0862478,7.07208333 C8.87737726,6.93858333 8.62077934,6.82275 8.32336861,6.729 C8.02924652,6.63558333 7.69195054,6.54833333 7.32168387,6.4695 C7.02857366,6.4025 6.81413774,6.35075 6.68630257,6.31558333 C6.55753983,6.28041667 6.43004194,6.23158333 6.30617,6.17008333 C6.18170778,6.1085 6.08220546,6.03366667 6.01036142,5.94741667 C5.9382644,5.85983333 5.90301697,5.75891667 5.90301697,5.63916667 C5.90301697,5.44541667 6.00614522,5.28433333 6.21855736,5.14658333 C6.42801817,5.01116667 6.70738357,4.9425 7.04898007,4.9425 C7.42245105,4.9425 7.68630083,5.00375 7.85494882,5.13033333 C8.02132006,5.256 8.16593571,5.43208333 8.28449525,5.65508333 C8.37868515,5.81491667 8.46174429,5.924 8.54041858,5.99266667 C8.63798144,6.07758333 8.7815852,6.09583333 8.88496642,6.09583333 C9.05066307,6.09583333 9.19064091,6.03825 9.30135831,5.92425 C9.41199139,5.81033333 9.46798253,5.68083333 9.46798253,5.53916667 C9.46798253,5.38358333 9.42286919,5.22216667 9.33390737,5.05908333 C9.24536718,4.89633333 9.10269098,4.73775 8.90967335,4.58866667 C8.71699302,4.44025 8.4716102,4.31916667 8.17976485,4.22933333 C7.88758221,4.14008333 7.53679438,4.0945 7.1365927,4.0945 C6.63553952,4.0945 6.19351314,4.16325 5.82358377,4.29866667 C5.45340143,4.43375 5.1661939,4.63 4.97047791,4.88233333 C4.77518354,5.13425 4.67568122,5.42691667 4.67568122,5.75075 C4.67568122,6.09091667 4.76953383,6.37966667 4.95504662,6.60916667 C5.14047508,6.83833333 5.39445896,7.02191667 5.71067394,7.15441667 C6.02781649,7.28791667 6.42574142,7.40541667 6.89281203,7.50433333 C7.24031122,7.576 7.52397714,7.64566667 7.73605199,7.71075 C7.94492252,7.77483333 8.11812401,7.86925 8.2509343,7.992 C8.38298568,8.11441667 8.4501919,8.27616667 8.4501919,8.47216667 C8.4501919,8.72341667 8.32927129,8.92658333 8.08059983,9.0945 C7.8355543,9.25958333 7.51242475,9.34325 7.12073979,9.34325 C6.83580901,9.34325 6.60231587,9.30191667 6.4274279,9.21983333 C6.25245561,9.13816667 6.11450155,9.03233333 6.01761328,8.90575 C5.92148393,8.78008333 5.83058266,8.62091667 5.74684893,8.43175 C5.67905244,8.27391667 5.59531871,8.15283333 5.49918936,8.07208333 C5.40297568,7.99166667 5.28374155,7.95066667 5.14410101,7.95066667 C4.97014061,7.95066667 4.83083737,8.00175 4.71851781,8.10625 C4.60754743,8.20908333 4.55088171,8.33475 4.55088171,8.47991667 C4.55088171,8.72933333 4.64473431,8.98941667 4.82948819,9.25308333 C5.01533827,9.51741667 5.25937192,9.73158333 5.55585508,9.88941667 C5.97418643,10.1085 6.5114146,10.2195 7.15438507,10.2195 C7.68992676,10.2195 8.16028601,10.1381667 8.55197096,9.97766667 C8.94331863,9.81683333 9.24435529,9.59125 9.44723882,9.30775 C9.64986938,9.02425 9.75291331,8.69966667 9.75291331,8.34325 Z" id="Fill-3"></path>
                </g>
            </g>
        </g>
    </g>
</svg>