<?xml version="1.0" encoding="UTF-8"?>
<svg width="13px" height="13px" viewBox="0 0 13 13" version="1.1" xmlns="http://www.w3.org/2000/svg" xmlns:xlink="http://www.w3.org/1999/xlink">
    <!-- Generator: Sketch 41.1 (35376) - http://www.bohemiancoding.com/sketch -->
    <title>spotify-logo</title>
    <desc>Created with Sketch.</desc>
    <defs></defs>
    <g id="Page-1" stroke="none" stroke-width="1" fill="none" fill-rule="evenodd">
        <g id="Home" transform="translate(-1234.000000, -657.000000)" fill="#9B9B9B">
            <g id="Group-2" transform="translate(1000.000000, 656.000000)">
                <g id="spotify-logo" transform="translate(234.187035, 1.125000)">
                    <path d="M8.69397257,8.10791667 C6.59641319,7.14991667 3.66016734,7.57375 3.53637972,7.592 C3.25996566,7.63333333 3.06989938,7.88816667 3.11172408,8.161 C3.15329581,8.43408333 3.41149588,8.62191667 3.68748832,8.58091667 C3.71489362,8.57666667 6.44420838,8.18216667 8.26931693,9.0155 C8.33787234,9.04708333 8.41030665,9.062 8.48113881,9.062 C8.67255428,9.06166667 8.8553687,8.95425 8.94095756,8.77166667 C9.05791494,8.521 8.94753483,8.22383333 8.69397257,8.10791667 Z" id="Fill-1"></path>
                    <path d="M9.28322865,6.30716667 C6.90107578,5.21925 3.56074935,5.70133333 3.41942234,5.7225 C3.14334558,5.76383333 2.95327929,6.01841667 2.99485102,6.29116667 C3.03633843,6.56433333 3.2942012,6.7525 3.57027796,6.71141667 C3.60189946,6.70658333 6.75477365,6.25408333 8.85899463,7.215 C8.92746572,7.24658333 8.99964706,7.26125 9.07073218,7.26125 C9.26181036,7.26125 9.44496208,7.15383333 9.53055093,6.97091667 C9.64750831,6.72025 9.53687523,6.423 9.28322865,6.30716667 Z" id="Fill-2"></path>
                    <path d="M9.6798044,4.42625 C7.04830548,3.2245 3.3528907,3.75766667 3.19672267,3.78075 C2.92039293,3.82208333 2.73032665,4.07666667 2.77215135,4.34975 C2.81363875,4.62258333 3.07158586,4.81108333 3.34757829,4.76975 C3.38282572,4.7645 6.90208767,4.25933333 9.25523309,5.33383333 C9.32370417,5.36541667 9.39622281,5.38008333 9.46705496,5.38008333 C9.65838611,5.38008333 9.84120053,5.27266667 9.92687371,5.08966667 C10.0440841,4.83908333 9.93345098,4.54183333 9.6798044,4.42625 Z" id="Fill-3"></path>
                    <path d="M6.30220677,0.0438333333 C2.82713059,0.0438333333 0,2.83775 0,6.27166667 C0,9.70591667 2.82713059,12.4998333 6.30220677,12.4998333 C9.77728294,12.4998333 12.6044979,9.70591667 12.6044979,6.27166667 C12.6044979,2.83775 9.77728294,0.0438333333 6.30220677,0.0438333333 Z M6.30220677,11.4998333 C3.3851868,11.4998333 1.01188794,9.15483333 1.01188794,6.27166667 C1.01188794,3.38883333 3.3851868,1.04383333 6.30220677,1.04383333 C9.21931106,1.04383333 11.5926099,3.38883333 11.5926099,6.27166667 C11.5926099,9.15483333 9.21931106,11.4998333 6.30220677,11.4998333 Z" id="Fill-4"></path>
                </g>
            </g>
        </g>
    </g>
</svg>