<?xml version="1.0" encoding="UTF-8"?>
<svg width="9px" height="12px" viewBox="0 0 9 12" version="1.1" xmlns="http://www.w3.org/2000/svg" xmlns:xlink="http://www.w3.org/1999/xlink">
    <!-- Generator: Sketch 41.1 (35376) - http://www.bohemiancoding.com/sketch -->
    <title>tumblr-logo</title>
    <desc>Created with Sketch.</desc>
    <defs></defs>
    <g id="Page-1" stroke="none" stroke-width="1" fill="none" fill-rule="evenodd">
        <g id="Home" transform="translate(-1281.000000, -657.000000)" fill="#9B9B9B">
            <g id="Group-2" transform="translate(1000.000000, 656.000000)">
                <g id="tumblr-logo" transform="translate(281.955767, 1.875000)">
                    <path d="M7.44850716,8.85833333 C7.22218156,8.69616667 6.9057136,8.746 6.7419564,8.96966667 C6.42177819,9.40616667 5.90596831,9.66658333 5.36182557,9.66658333 C4.42304653,9.66658333 3.65923978,8.912 3.65923978,7.98425 L3.65923978,4.41433333 L6.87341751,4.41433333 C7.15303588,4.41433333 7.37936148,4.19033333 7.37936148,3.91433333 C7.37936148,3.63825 7.15303588,3.41433333 6.87341751,3.41433333 L0.505943972,3.41433333 C0.2266629,3.41433333 0,3.63825 0,3.91433333 C0,4.19033333 0.2266629,4.41433333 0.505943972,4.41433333 L2.64735184,4.41433333 L2.64735184,7.98425 C2.64735184,9.46341667 3.86507465,10.6665833 5.36182557,10.6665833 C6.22943516,10.6665833 7.05159411,10.2515833 7.56116402,9.55658333 C7.72517419,9.33291667 7.67483276,9.02008333 7.44850716,8.85833333 Z" id="Fill-1"></path>
                    <path d="M3.15329581,2.47841667 C3.43257688,2.47841667 3.65923978,2.2545 3.65923978,1.97841667 L3.65923978,0.526916667 C3.65923978,0.250916667 3.43257688,0.0269166667 3.15329581,0.0269166667 C2.87393041,0.0269166667 2.64735184,0.250916667 2.64735184,0.526916667 L2.64735184,1.97841667 C2.64735184,2.2545 2.87393041,2.47841667 3.15329581,2.47841667 Z" id="Fill-3"></path>
                </g>
            </g>
        </g>
    </g>
</svg>