<?xml version="1.0" encoding="UTF-8"?>
<svg width="14px" height="12px" viewBox="0 0 14 12" version="1.1" xmlns="http://www.w3.org/2000/svg" xmlns:xlink="http://www.w3.org/1999/xlink">
    <!-- Generator: Sketch 41.1 (35376) - http://www.bohemiancoding.com/sketch -->
    <title>twitter-logo</title>
    <desc>Created with Sketch.</desc>
    <defs>
        <polygon id="path-1" points="0.00505943972 0.0669684867 0.00505943972 9.41675 13.4066992 9.41675 13.4066992 0.0669684867 0.00505943972 0.0669684867"></polygon>
    </defs>
    <g id="Page-1" stroke="none" stroke-width="1" fill="none" fill-rule="evenodd">
        <g id="Home" transform="translate(-1138.000000, -657.000000)">
            <g id="Group-2" transform="translate(1000.000000, 656.000000)">
                <g id="twitter-logo" transform="translate(138.052810, 1.875000)">
                    <g id="Group-3" transform="translate(0.000000, 1.333333)">
                        <mask id="mask-2" fill="white">
                            <use xlink:href="#path-1"></use>
                        </mask>
                        <g id="Clip-2"></g>
                        <path d="M13.3162767,0.281916667 C13.1571573,0.0550833333 12.8419542,-0.00125 12.61234,0.156333333 L11.0412153,1.23341667 C10.8985391,1.33141667 10.8164919,1.4945 10.824081,1.66608333 C10.8287188,1.76858333 10.8309956,1.86525 10.8309956,1.96066667 C10.8309956,5.13416667 8.3872862,8.41675 4.29824702,8.41675 C3.46453567,8.41675 2.64566536,8.25983333 1.88017213,7.95741667 L4.30482429,7.28716667 C4.57390216,7.21291667 4.73099776,6.93691667 4.65561211,6.67091667 C4.58014213,6.405 4.30153565,6.24975 4.03203616,6.32425 L0.369592072,7.33666667 C0.17750201,7.38966667 0.0352474301,7.54916667 0.0055653837,7.74416667 C-0.0240323387,7.93883333 0.0651824484,8.13283333 0.232902875,8.239 C1.44868624,9.0095 2.85453589,9.41675 4.29824702,9.41675 C7.13524352,9.41675 8.9122874,8.09183333 9.90343164,6.98083333 C11.1359955,5.599 11.8428835,3.76925 11.8428835,1.96066667 C11.8428835,1.94083333 11.8425462,1.92091667 11.8425462,1.90108333 L13.1891161,0.977916667 C13.4187304,0.820333333 13.4757334,0.508833333 13.3162767,0.281916667 Z" id="Fill-1" fill="#9B9B9B" mask="url(#mask-2)"></path>
                    </g>
                    <path d="M1.11661835,1.45933333 L6.21560602,4.01375 C6.28804034,4.04983333 6.36646165,4.06775 6.44420838,4.06775 C6.55551605,4.06775 6.66589616,4.03158333 6.75679743,3.96133333 C6.91127899,3.84116667 6.98177385,3.64391667 6.9373351,3.4545 C6.90335253,3.31091667 6.88623476,3.1615 6.88623476,3.0105 C6.88623476,1.93816667 7.76935996,1.06583333 8.85435681,1.06583333 C9.3968974,1.06583333 9.92054941,1.28975 10.2908161,1.68008333 C10.429529,1.82591667 10.6426158,1.876 10.8326821,1.80766667 L12.4065051,1.24258333 C12.6690057,1.1485 12.8047673,0.861333333 12.7092283,0.601916667 C12.6136892,0.3425 12.323193,0.208666667 12.0609454,0.30275 L10.7803169,0.76275 C10.2453654,0.316416667 9.56057027,0.0658333333 8.85435681,0.0658333333 C7.30751744,0.0658333333 6.03211701,1.23633333 5.88817595,2.72825 L1.57416035,0.567416667 C1.32515159,0.442416667 1.02048899,0.541083333 0.894255971,0.787166667 C0.767769978,1.03358333 0.867609589,1.33433333 1.11661835,1.45933333 Z" id="Fill-4" fill="#9B9B9B"></path>
                    <path d="M0.856057201,4.4535 L1.9763858,4.75916667 C2.02149914,4.7715 2.06661248,4.77741667 2.11138852,4.77741667 C2.3330763,4.77741667 2.53663443,4.63191667 2.59852824,4.41016667 C2.67298633,4.14425 2.51487884,3.86883333 2.24580097,3.79533333 L1.12521939,3.48966667 C0.856057201,3.41608333 0.57745072,3.57233333 0.502992633,3.83825 C0.428534545,4.1045 0.586642036,4.37991667 0.856057201,4.4535 Z" id="Fill-5" fill="#9B9B9B"></path>
                    <path d="M1.83834742,5.94175 C1.55898203,5.95216667 1.34125747,6.18425 1.35179797,6.46033333 C1.36200117,6.72983333 1.586303,6.94141667 1.85706735,6.94141667 C1.86372895,6.94141667 1.86996892,6.94116667 1.87654619,6.94116667 L2.99383913,6.89916667 C3.27312021,6.88875 3.49084476,6.65658333 3.48030426,6.38058333 C3.46976376,6.1045 3.23424684,5.88966667 2.95564036,5.89975 L1.83834742,5.94175 Z" id="Fill-6" fill="#9B9B9B"></path>
                </g>
            </g>
        </g>
    </g>
</svg>